<?xml version="1.0" encoding="UTF-8" standalone="no"?>
<!DOCTYPE svg PUBLIC "-//W3C//DTD SVG 1.1//EN" "http://www.w3.org/Graphics/SVG/1.1/DTD/svg11.dtd">
<!-- Created with Vectornator (http://vectornator.io/) -->
<svg stroke-miterlimit="10" style="fill-rule:nonzero;clip-rule:evenodd;stroke-linecap:round;stroke-linejoin:round;" version="1.1" viewBox="0 0 64 64" xml:space="preserve" xmlns="http://www.w3.org/2000/svg" xmlns:xlink="http://www.w3.org/1999/xlink">
<defs/>
<clipPath id="ArtboardFrame">
<rect height="64" width="64" x="0" y="0"/>
</clipPath>
<g clip-path="url(#ArtboardFrame)" id="Untitled">
<g opacity="1">
<path d="M6 27C6 12.6406 17.6406 1 32 1C46.3594 1 58 12.6406 58 27C58 41.3594 46.3594 53 32 53C17.6406 53 6 41.3594 6 27Z" fill="#f3f3f3" fill-opacity="0" fill-rule="nonzero" opacity="1" stroke="none"/>
<path d="M32 50C18.2259 49.9965 6.84466 39.2512 6.05 25.5C5.45034 35.1555 10.2611 44.3455 18.5373 49.3547C26.8135 54.364 37.1865 54.364 45.4627 49.3547C53.7389 44.3455 58.5497 35.1555 57.95 25.5C57.1553 39.2512 45.7742 49.9965 32 50Z" fill="#e4e4e4" fill-opacity="0" fill-rule="nonzero" opacity="1" stroke="none"/>
<path d="M20 51C20 44.3726 25.3726 39 32 39C38.6274 39 44 44.3726 44 51C44 57.6274 38.6274 63 32 63C25.3726 63 20 57.6274 20 51Z" fill="#e4e4e4" fill-opacity="0" fill-rule="nonzero" opacity="1" stroke="none"/>
<path d="M5 19L59 19C60.1046 19 61 19.8954 61 21L61 33C61 34.1046 60.1046 35 59 35L5 35C3.89543 35 3 34.1046 3 33L3 21C3 19.8954 3.89543 19 5 19Z" fill="#e4e4e4" fill-opacity="0" fill-rule="nonzero" opacity="1" stroke="none"/>
<path d="M59 18L57.44 18C53.6128 7.23535 43.4247 0.044686 32 0.0446865C20.5753 0.0446865 10.3872 7.23535 6.56 18L5 18C3.34315 18 2 19.3431 2 21L2 33C2 34.6569 3.34314 36 5 36L6.55 36C8.77326 42.244 13.2007 47.4609 19 50.67C18.8478 56.3454 22.3962 61.463 27.7645 63.3107C33.1329 65.1584 39.0793 63.3087 42.4523 58.7419C45.8253 54.1751 45.8446 47.9476 42.5 43.36C43.8724 41.0513 44.9476 38.5783 45.7 36L55.31 36C53.58 40.4688 50.6104 44.3509 46.75 47.19C46.3024 47.5158 46.2038 48.1427 46.5297 48.5902C46.8556 49.0377 47.4827 49.1361 47.93 48.81C52.3066 45.5839 55.6184 41.1228 57.44 36L59 36C60.6569 36 62 34.6569 62 33L62 21C62 19.3431 60.6569 18 59 18ZM55.31 18L45.71 18C43.9183 11.8252 40.3082 6.33327 35.35 2.24C44.3876 3.44123 52.0452 9.48752 55.31 18ZM28.65 2.24C23.6918 6.33327 20.0817 11.8252 18.29 18L8.69 18C11.9548 9.48752 19.6124 3.44123 28.65 2.24ZM8.68 36L18.3 36C19.0524 38.5783 20.1276 41.0513 21.5 43.36C20.387 44.8904 19.6194 46.6441 19.25 48.5C14.4323 45.6275 10.7121 41.228 8.68 36ZM32 62C25.9249 62 21 57.0751 21 51C21 44.9249 25.9249 40 32 40C38.0751 40 43 44.9249 43 51C43 57.0751 38.0751 62 32 62ZM41.12 41.75C36.0602 36.7689 27.9398 36.7689 22.88 41.75C21.8528 39.9249 21.0183 37.9978 20.39 36L43.61 36C42.9817 37.9978 42.1472 39.9249 41.12 41.75ZM60 33C60 33.5523 59.5523 34 59 34L5 34C4.44771 34 4 33.5523 4 33L4 21C4 20.4477 4.44771 20 5 20L22 20C22.5523 20 23 19.5523 23 19C23 18.4477 22.5523 18 22 18L20.4 18C22.3905 11.5868 26.4751 6.02676 32 2.21C37.5249 6.02676 41.6095 11.5868 43.6 18L32 18C31.4477 18 31 18.4477 31 19C31 19.5523 31.4477 20 32 20L59 20C59.5523 20 60 20.4477 60 21L60 33Z" fill="#326ce5" fill-rule="nonzero" opacity="1" stroke="none"/>
<path d="M28 18L26 18C25.4477 18 25 18.4477 25 19C25 19.5523 25.4477 20 26 20L28 20C28.5523 20 29 19.5523 29 19C29 18.4477 28.5523 18 28 18Z" fill="#326ce5" fill-rule="nonzero" opacity="1" stroke="none"/>
<path d="M38.42 48.11L37.71 46.89C37.5385 46.5919 37.2552 46.3747 36.9229 46.2864C36.5905 46.1982 36.2367 46.2463 35.94 46.42C35.5378 46.6475 35.045 46.6444 34.6457 46.4118C34.2464 46.1792 34.0005 45.7521 34 45.29C34 44.5776 33.4224 44 32.71 44L31.29 44C30.5776 44 30 44.5776 30 45.29C29.9994 45.7521 29.7536 46.1792 29.3543 46.4118C28.955 46.6444 28.4622 46.6475 28.06 46.42C27.7633 46.2463 27.4095 46.1982 27.0771 46.2864C26.7448 46.3747 26.4614 46.5919 26.29 46.89L25.58 48.11C25.2257 48.7316 25.4402 49.5226 26.06 49.88C26.4619 50.1097 26.7099 50.5371 26.7099 51C26.7099 51.4629 26.4619 51.8903 26.06 52.12C25.4402 52.4774 25.2257 53.2684 25.58 53.89L26.29 55.11C26.4614 55.4081 26.7448 55.6253 27.0771 55.7136C27.4095 55.8018 27.7633 55.7537 28.06 55.58C28.4622 55.3525 28.955 55.3556 29.3543 55.5882C29.7536 55.8208 29.9994 56.2479 30 56.71C30 57.4224 30.5776 58 31.29 58L32.71 58C33.4224 58 34 57.4224 34 56.71C34.0005 56.2479 34.2464 55.8208 34.6457 55.5882C35.045 55.3556 35.5378 55.3525 35.94 55.58C36.2367 55.7537 36.5905 55.8018 36.9229 55.7136C37.2552 55.6253 37.5385 55.4081 37.71 55.11L38.42 53.89C38.7743 53.2684 38.5598 52.4774 37.94 52.12C37.5381 51.8903 37.2901 51.4629 37.2901 51C37.2901 50.5371 37.5381 50.1097 37.94 49.88C38.5598 49.5226 38.7743 48.7316 38.42 48.11Z" fill="#21af90" fill-rule="nonzero" opacity="1" stroke="none"/>
<path d="M32 53C30.8954 53 30 52.1046 30 51C30 49.8954 30.8954 49 32 49C33.1046 49 34 49.8954 34 51C34 52.1046 33.1046 53 32 53Z" fill="#e4e4e4" fill-rule="nonzero" opacity="1" stroke="none"/>
<g opacity="1">
<path d="M14 23C13.4477 23 13 23.4477 13 24L13 27L11.8 25.4C11.6111 25.1482 11.3148 25 11 25C10.6852 25 10.3889 25.1482 10.2 25.4L9 27L9 24C9 23.4477 8.55228 23 8 23C7.44772 23 7 23.4477 7 24L7 30C7 30.4304 7.27543 30.8126 7.68377 30.9487C8.09211 31.0848 8.54174 30.9443 8.8 30.6L11 27.67L13.2 30.6C13.4583 30.9443 13.9079 31.0848 14.3162 30.9487C14.7246 30.8126 15 30.4304 15 30L15 24C15 23.4477 14.5523 23 14 23Z" fill="#21af90" fill-rule="nonzero" opacity="1" stroke="none"/>
<path d="M25 23C24.4477 23 24 23.4477 24 24L24 27L22.8 25.4C22.6111 25.1482 22.3148 25 22 25C21.6852 25 21.3889 25.1482 21.2 25.4L20 27L20 24C20 23.4477 19.5523 23 19 23C18.4477 23 18 23.4477 18 24L18 30C18 30.4304 18.2754 30.8126 18.6838 30.9487C19.0921 31.0848 19.5417 30.9443 19.8 30.6L22 27.67L24.2 30.6C24.4583 30.9443 24.9079 31.0848 25.3162 30.9487C25.7246 30.8126 26 30.4304 26 30L26 24C26 23.4477 25.5523 23 25 23Z" fill="#21af90" fill-rule="nonzero" opacity="1" stroke="none"/>
<path d="M36 23C35.4477 23 35 23.4477 35 24L35 27L33.8 25.4C33.6111 25.1482 33.3148 25 33 25C32.6852 25 32.3889 25.1482 32.2 25.4L31 27L31 24C31 23.4477 30.5523 23 30 23C29.4477 23 29 23.4477 29 24L29 30C29 30.4304 29.2754 30.8126 29.6838 30.9487C30.0921 31.0848 30.5417 30.9443 30.8 30.6L33 27.67L35.2 30.6C35.4583 30.9443 35.9079 31.0848 36.3162 30.9487C36.7246 30.8126 37 30.4304 37 30L37 24C37 23.4477 36.5523 23 36 23Z" fill="#21af90" fill-rule="nonzero" opacity="1" stroke="none"/>
<path d="M41 29C40.4477 29 40 29.4477 40 30C40 30.5523 40.4477 31 41 31C41.5523 31 42 30.5523 42 30C42 29.4477 41.5523 29 41 29Z" fill="#21af90" fill-rule="nonzero" opacity="1" stroke="none"/>
<path d="M46 29C45.4477 29 45 29.4477 45 30C45 30.5523 45.4477 31 46 31C46.5523 31 47 30.5523 47 30C47 29.4477 46.5523 29 46 29Z" fill="#21af90" fill-rule="nonzero" opacity="1" stroke="none"/>
<path d="M51 29C50.4477 29 50 29.4477 50 30C50 30.5523 50.4477 31 51 31C51.5523 31 52 30.5523 52 30C52 29.4477 51.5523 29 51 29Z" fill="#21af90" fill-rule="nonzero" opacity="1" stroke="none"/>
</g>
</g>
</g>
</svg>
