<?xml version="1.0" encoding="UTF-8" standalone="no"?>
<!DOCTYPE svg PUBLIC "-//W3C//DTD SVG 1.1//EN" "http://www.w3.org/Graphics/SVG/1.1/DTD/svg11.dtd">
<!-- Created with Vectornator (http://vectornator.io/) -->
<svg stroke-miterlimit="10" style="fill-rule:nonzero;clip-rule:evenodd;stroke-linecap:round;stroke-linejoin:round;" version="1.1" viewBox="0 0 512.632 512.632" xml:space="preserve" xmlns="http://www.w3.org/2000/svg" xmlns:xlink="http://www.w3.org/1999/xlink">
<defs/>
<g id="Untitled">
<g opacity="1">
<g opacity="1">
<path d="M432.49 257.507C432.49 211.759 415.039 168.396 383.353 135.405C380.484 132.418 375.736 132.323 372.749 135.191C369.762 138.06 369.666 142.808 372.535 145.795C401.525 175.978 417.491 215.651 417.491 257.506C417.491 346.444 345.134 418.801 256.196 418.801C167.258 418.801 94.899 346.445 94.899 257.507C94.899 168.569 167.256 96.211 256.194 96.211C289.796 96.211 322 106.443 349.324 125.801C352.702 128.196 357.385 127.397 359.779 124.017C362.174 120.637 361.375 115.956 357.995 113.562C328.122 92.398 292.92 81.211 256.194 81.211C158.985 81.211 79.899 160.297 79.899 257.506C79.899 354.715 158.985 433.801 256.194 433.801C353.403 433.801 432.49 354.716 432.49 257.507Z" fill="#326ce5" fill-rule="nonzero" opacity="1" stroke="none"/>
<path d="M177.416 349.725C172.458 345.485 167.808 340.821 163.526 335.755C160.851 332.592 156.12 332.194 152.956 334.869C149.793 337.543 149.396 342.275 152.07 345.439C178.049 376.173 216.001 393.799 256.195 393.799C331.347 393.799 392.487 332.658 392.487 257.507C392.487 182.356 331.346 121.215 256.195 121.215C181.044 121.215 119.903 182.356 119.903 257.507C119.903 278.131 124.397 297.951 133.261 316.417C135.053 320.151 139.535 321.726 143.268 319.933C147.002 318.141 148.576 313.661 146.784 309.926C138.901 293.502 134.903 275.866 134.903 257.507C134.903 190.626 189.315 136.215 256.195 136.215C323.075 136.215 377.487 190.627 377.487 257.507C377.487 294.36 360.961 327.423 334.936 349.686C322.546 336.498 306.638 326.965 289.166 322.259L289.166 308.581C294.157 305.581 298.786 301.888 302.917 297.516C305.762 294.506 305.628 289.759 302.617 286.913C299.607 284.069 294.86 284.203 292.014 287.213C282.597 297.178 269.875 302.667 256.194 302.667C229.015 302.667 206.902 280.555 206.902 253.375L206.902 232.089L305.485 232.089L305.485 253.375C305.485 256.296 305.211 259.283 304.672 262.252C303.931 266.327 306.634 270.232 310.709 270.973C314.782 271.713 318.689 269.011 319.43 264.936C320.131 261.084 320.486 257.194 320.486 253.375L320.486 224.589C320.486 224.581 320.485 224.574 320.485 224.566C320.485 224.557 320.486 224.548 320.486 224.539L320.117 168.768C320.09 164.687 317.791 161.051 314.116 159.276C310.442 157.502 306.164 157.963 302.952 160.478L295.665 166.186L239.928 166.186C213.447 166.186 191.904 187.729 191.904 214.21L191.904 224.588L191.904 253.374C191.904 276.779 204.48 297.296 223.224 308.541L223.224 322.258C205.732 326.97 189.81 336.517 177.416 349.725ZM239.927 181.187L298.252 181.187C299.928 181.187 301.557 180.625 302.877 179.592L305.176 177.791L305.436 217.09L206.903 217.09L206.903 214.212C206.903 196.001 221.718 181.187 239.927 181.187ZM322.888 358.764C303.74 371.419 280.814 378.799 256.194 378.799C232.18 378.799 209.07 371.718 189.473 358.792C199.174 348.858 211.289 341.506 224.566 337.466C228.59 351.134 241.242 361.143 256.194 361.143C271.146 361.143 283.799 351.134 287.822 337.466C301.086 341.503 313.191 348.844 322.888 358.764ZM256.194 317.667C262.38 317.667 268.408 316.788 274.165 315.124L274.165 328.173C274.165 338.082 266.103 346.144 256.194 346.144C246.285 346.144 238.223 338.082 238.223 328.173L238.223 315.092C243.93 316.756 249.956 317.667 256.194 317.667Z" fill="#21af90" fill-rule="nonzero" opacity="1" stroke="none"/>
<path d="M339.174 84.848C343.261 85.515 347.117 82.742 347.784 78.654C350.628 61.232 359.615 45.269 373.09 33.706C373.726 33.16 374.379 32.638 375.031 32.115C372.57 38.079 371.21 44.608 371.21 51.45C371.21 64.298 376.008 76.04 383.893 85.002C379.594 87.738 375.584 90.929 371.914 94.571C368.974 97.488 368.956 102.237 371.874 105.177C373.34 106.654 375.269 107.394 377.197 107.394C379.107 107.394 381.017 106.669 382.48 105.217C386.558 101.17 391.162 97.824 396.189 95.211C403.778 99.717 412.628 102.316 422.076 102.316C431.529 102.316 440.383 99.715 447.975 95.204C465.292 104.21 476.802 121.716 478.153 141.225C467.122 153.514 452.024 162.191 434.633 165.11C430.548 165.796 427.793 169.663 428.478 173.748C429.093 177.413 432.269 180.007 435.866 180.007C436.278 180.007 436.696 179.973 437.116 179.903C457.929 176.409 476.98 165.606 490.757 149.484C504.695 133.174 512.37 112.361 512.37 90.879C512.37 41.09 471.864 0.583997 422.075 0.583997C400.522 0.583997 379.655 8.304 363.32 22.323C347.166 36.185 336.391 55.333 332.979 76.239C332.312 80.326 335.085 84.181 339.174 84.848ZM386.209 51.45C386.209 31.673 402.299 15.583 422.076 15.583C441.853 15.583 457.943 31.673 457.943 51.45C457.943 71.227 441.853 87.317 422.076 87.317C402.299 87.317 386.209 71.227 386.209 51.45ZM497.371 90.879C497.371 102.569 494.717 113.684 489.946 123.615C484.907 107.775 474.421 94.022 460.261 85.001C468.146 76.038 472.943 64.297 472.943 51.45C472.943 44.626 471.589 38.114 469.14 32.165C486.336 45.976 497.371 67.158 497.371 90.879Z" fill="#326ce5" fill-rule="nonzero" opacity="1" stroke="none"/>
<path d="M75.544 179.326C75.964 179.396 76.38 179.43 76.792 179.43C80.389 179.43 83.566 176.834 84.18 173.168C84.864 169.083 82.107 165.216 78.022 164.532C60.642 161.621 45.55 152.961 34.518 140.691C36.041 121.398 47.498 104.129 64.656 95.205C72.248 99.716 81.102 102.317 90.555 102.317C100.003 102.317 108.853 99.719 116.442 95.212C121.43 97.804 126.002 101.119 130.057 105.125C131.518 106.569 133.423 107.289 135.327 107.289C137.262 107.289 139.196 106.545 140.663 105.06C143.574 102.113 143.544 97.364 140.598 94.454C136.96 90.861 132.987 87.714 128.735 85.006C136.622 76.043 141.421 64.3 141.421 51.45C141.421 44.264 139.922 37.423 137.221 31.221C138.055 31.88 138.883 32.549 139.691 33.246C153.196 44.893 162.155 60.952 164.918 78.464C165.564 82.556 169.411 85.352 173.495 84.704C177.587 84.059 180.38 80.219 179.735 76.127C176.421 55.112 165.679 35.85 149.488 21.887C133.123 7.773 112.194 2.77162e-06 90.556 2.77162e-06C40.767 2.77162e-06 0.259999 40.506 0.259999 90.295C0.259999 111.782 7.939 132.6 21.883 148.911C35.667 165.037 54.724 175.838 75.544 179.326ZM54.689 51.45C54.689 31.673 70.779 15.583 90.556 15.583C110.333 15.583 126.423 31.673 126.423 51.45C126.423 71.227 110.333 87.317 90.556 87.317C70.779 87.317 54.689 71.227 54.689 51.45ZM43.874 31.274C41.188 37.464 39.689 44.284 39.689 51.451C39.689 64.301 44.489 76.046 52.377 85.009C38.32 93.963 27.885 107.578 22.803 123.27C17.959 113.279 15.26 102.081 15.26 90.296C15.26 66.399 26.459 45.076 43.874 31.274Z" fill="#326ce5" fill-rule="nonzero" opacity="1" stroke="none"/>
<path d="M437.474 334.509C433.395 333.784 429.502 336.503 428.777 340.581C428.103 344.375 430.41 348.006 434.018 349.078C434.08 349.102 434.138 349.132 434.201 349.154C448.401 354.257 457.942 367.821 457.942 382.908C457.942 402.685 441.852 418.775 422.075 418.775C410.324 418.775 399.299 412.995 392.585 403.313C390.226 399.91 385.553 399.063 382.148 401.424C378.744 403.784 377.898 408.457 380.259 411.861C381.38 413.477 382.592 415.01 383.874 416.468C369.739 425.479 359.266 439.206 354.223 455.017C351.387 449.117 349.287 442.766 348.053 436.07C347.302 431.997 343.397 429.304 339.318 430.053C335.245 430.804 332.551 434.715 333.301 438.788C341.187 481.576 378.521 512.631 422.075 512.631C471.864 512.631 512.37 472.125 512.37 422.336C512.371 379.158 480.872 342.222 437.474 334.509ZM422.076 497.632C400.024 497.632 379.896 488.075 366.005 472.59C367.387 453.12 378.887 435.656 396.175 426.664C403.914 431.248 412.833 433.775 422.075 433.775C431.528 433.775 440.382 431.174 447.974 426.663C465.244 435.645 476.739 453.082 478.141 472.528C464.346 487.923 444.326 497.632 422.076 497.632ZM489.918 454.984C484.868 439.183 474.392 425.466 460.258 416.463C468.144 407.5 472.943 395.757 472.943 382.908C472.943 376.7 471.797 370.676 469.688 365.072C486.736 378.801 497.372 399.519 497.372 422.337C497.371 434.027 494.693 445.103 489.918 454.984Z" fill="#326ce5" fill-rule="nonzero" opacity="1" stroke="none"/>
<path d="M173.303 430.16C169.227 429.403 165.317 432.093 164.56 436.165C163.324 442.824 161.23 449.141 158.407 455.012C153.36 439.203 142.883 425.48 128.745 416.471C129.989 415.057 131.169 413.577 132.261 412.015C134.634 408.62 133.806 403.944 130.411 401.571C127.016 399.197 122.34 400.025 119.967 403.421C113.247 413.035 102.251 418.774 90.555 418.774C70.778 418.774 54.688 402.684 54.688 382.907C54.688 367.871 64.185 354.322 78.319 349.191C78.38 349.169 78.437 349.139 78.497 349.116C82.057 348.005 84.318 344.396 83.638 340.632C82.902 336.555 78.996 333.85 74.925 334.584C31.662 342.396 0.259991 379.302 0.259991 422.336C0.259991 472.125 40.766 512.631 90.555 512.631C134.052 512.631 171.378 481.624 179.308 438.902C180.065 434.831 177.376 430.916 173.303 430.16ZM42.924 365.137C40.828 370.725 39.69 376.727 39.69 382.908C39.69 395.754 44.487 407.495 52.37 416.457C38.236 425.462 27.765 439.184 22.717 454.989C17.941 445.106 15.261 434.029 15.261 422.337C15.26 399.569 25.891 378.868 42.924 365.137ZM90.556 497.632C68.305 497.632 48.286 487.923 34.49 472.528C35.892 453.082 47.386 435.645 64.657 426.663C72.249 431.174 81.103 433.775 90.556 433.775C99.791 433.775 108.713 431.248 116.455 426.663C133.742 435.653 145.242 453.115 146.627 472.584C132.732 488.071 112.601 497.632 90.556 497.632Z" fill="#326ce5" fill-rule="nonzero" opacity="1" stroke="none"/>
</g>
</g>
</g>
</svg>
