
<?xml version="1.0"?>
<svg xmlns="http://www.w3.org/2000/svg" xmlns:xlink="http://www.w3.org/1999/xlink" xmlns:svgjs="http://svgjs.com/svgjs" version="1.1" width="512" height="512" x="0" y="0" viewBox="0 0 512 512" style="enable-background:new 0 0 512 512" xml:space="preserve" class=""><g><g xmlns="http://www.w3.org/2000/svg"><path d="m127.5 393.833h-110c-5.523 0-10-4.477-10-10v-35.333c0-5.523 4.477-10 10-10h110c5.523 0 10 4.477 10 10v35.333c0 5.523-4.477 10-10 10z" fill="#a9dbf5" data-original="#a9dbf5"/><path d="m127.5 338.5h-30c5.523 0 10 4.477 10 10v35.333c0 5.522-4.477 10-10 10h30c5.523 0 10-4.478 10-10v-35.333c0-5.523-4.477-10-10-10z" fill="#88c3e0" data-original="#88c3e0" class=""/><path d="m127.5 449.167h-110c-5.523 0-10-4.477-10-10v-35.333c0-5.523 4.477-10 10-10h110c5.523 0 10 4.477 10 10v35.333c0 5.523-4.477 10-10 10z" fill="#88c3e0" data-original="#88c3e0" class=""/><path d="m127.5 393.833h-30c5.523 0 10 4.477 10 10v35.333c0 5.523-4.477 10-10 10h30c5.523 0 10-4.477 10-10v-35.333c0-5.522-4.477-10-10-10z" fill="#6eabc9" data-original="#6eabc9" class=""/><path d="m127.5 504.5h-110c-5.523 0-10-4.477-10-10v-35.333c0-5.523 4.477-10 10-10h110c5.523 0 10 4.477 10 10v35.333c0 5.523-4.477 10-10 10z" fill="#a9dbf5" data-original="#a9dbf5"/><path d="m127.5 449.167h-30c5.523 0 10 4.477 10 10v35.333c0 5.523-4.477 10-10 10h30c5.523 0 10-4.477 10-10v-35.333c0-5.523-4.477-10-10-10z" fill="#88c3e0" data-original="#88c3e0" class=""/><path d="m361.717 114.636h-.086c-4.381.003-7.916-3.585-7.865-7.976.005-.384.007-.769.007-1.154.001-54.127-43.774-98.006-97.773-98.006s-97.774 43.879-97.774 98.006c0 .385.002.77.007 1.154.052 4.391-3.484 7.979-7.865 7.976h-.086c-35.561 0-64.292 29.315-63.452 65.152.779 33.264 29.422 61.656 62.614 62.086 13.7.177 26.416-3.999 36.865-11.234 1.321-.915 2.989-1.184 4.517-.689 18.431 5.966 40.91 9.471 65.174 9.471s46.743-3.505 65.174-9.471c1.528-.495 3.196-.225 4.517.689 10.448 7.234 23.164 11.411 36.865 11.234 33.191-.43 61.835-28.822 62.614-62.086.839-35.837-27.892-65.152-63.453-65.152z" fill="#f3f3f3" data-original="#f3f3f3" class=""/><g><path d="m361.717 114.636h-.086c-4.381.003-7.916-3.585-7.865-7.976.005-.384.007-.769.007-1.154 0-54.127-43.774-98.006-97.773-98.006-16.243 0-31.558 3.975-45.037 11 4.902-.759 9.924-1.154 15.037-1.154 53.999 0 97.773 43.879 97.773 98.006 0 .385-.002.77-.007 1.154-.052 4.391 3.484 7.979 7.865 7.976h.086c35.561 0 64.292 29.315 63.453 65.152-.503 21.497-12.653 40.948-30.139 52.143 32.127-1.767 59.379-29.555 60.138-61.989.84-35.837-27.891-65.152-63.452-65.152z" fill="#e4e4e4" data-original="#e4e4e4" class=""/></g><path d="m175.367 127.641c11.407 3.495 29.386 12.616 37.508 36.117 1 2.892 5.263 2.227 5.389-.831.458-11.159-.72-25.481-8.145-34.334-8.565-10.212-24.196-8.761-34.569-6.298-2.739.65-2.874 4.521-.183 5.346z" fill="#e4e4e4" data-original="#e4e4e4" class=""/><path d="m311 393.833h-110c-5.523 0-10-4.477-10-10v-35.333c0-5.523 4.477-10 10-10h110c5.523 0 10 4.477 10 10v35.333c0 5.523-4.477 10-10 10z" fill="#a9dbf5" data-original="#a9dbf5"/><path d="m311 338.5h-30c5.523 0 10 4.477 10 10v35.333c0 5.522-4.477 10-10 10h30c5.523 0 10-4.478 10-10v-35.333c0-5.523-4.477-10-10-10z" fill="#88c3e0" data-original="#88c3e0" class=""/><path d="m311 449.167h-110c-5.523 0-10-4.477-10-10v-35.333c0-5.523 4.477-10 10-10h110c5.523 0 10 4.477 10 10v35.333c0 5.523-4.477 10-10 10z" fill="#88c3e0" data-original="#88c3e0" class=""/><path d="m311 393.833h-30c5.523 0 10 4.477 10 10v35.333c0 5.523-4.477 10-10 10h30c5.523 0 10-4.477 10-10v-35.333c0-5.522-4.477-10-10-10z" fill="#6eabc9" data-original="#6eabc9" class=""/><path d="m311 504.5h-110c-5.523 0-10-4.477-10-10v-35.333c0-5.523 4.477-10 10-10h110c5.523 0 10 4.477 10 10v35.333c0 5.523-4.477 10-10 10z" fill="#a9dbf5" data-original="#a9dbf5"/><path d="m311 449.167h-30c5.523 0 10 4.477 10 10v35.333c0 5.523-4.477 10-10 10h30c5.523 0 10-4.477 10-10v-35.333c0-5.523-4.477-10-10-10z" fill="#88c3e0" data-original="#88c3e0" class=""/><path d="m494.5 393.833h-110c-5.523 0-10-4.477-10-10v-35.333c0-5.523 4.477-10 10-10h110c5.523 0 10 4.477 10 10v35.333c0 5.523-4.477 10-10 10z" fill="#a9dbf5" data-original="#a9dbf5"/><path d="m494.5 338.5h-30c5.523 0 10 4.477 10 10v35.333c0 5.522-4.477 10-10 10h30c5.523 0 10-4.478 10-10v-35.333c0-5.523-4.477-10-10-10z" fill="#88c3e0" data-original="#88c3e0" class=""/><path d="m494.5 449.167h-110c-5.523 0-10-4.477-10-10v-35.333c0-5.523 4.477-10 10-10h110c5.523 0 10 4.477 10 10v35.333c0 5.523-4.477 10-10 10z" fill="#88c3e0" data-original="#88c3e0" class=""/><path d="m494.5 393.833h-30c5.523 0 10 4.477 10 10v35.333c0 5.523-4.477 10-10 10h30c5.523 0 10-4.477 10-10v-35.333c0-5.522-4.477-10-10-10z" fill="#6eabc9" data-original="#6eabc9" class=""/><path d="m494.5 504.5h-110c-5.523 0-10-4.477-10-10v-35.333c0-5.523 4.477-10 10-10h110c5.523 0 10 4.477 10 10v35.333c0 5.523-4.477 10-10 10z" fill="#a9dbf5" data-original="#a9dbf5"/><path d="m494.5 449.167h-30c5.523 0 10 4.477 10 10v35.333c0 5.523-4.477 10-10 10h30c5.523 0 10-4.477 10-10v-35.333c0-5.523-4.477-10-10-10z" fill="#88c3e0" data-original="#88c3e0" class=""/><g><path d="m34 379.5c4.143 0 7.5-3.357 7.5-7.5v-10c0-4.143-3.357-7.5-7.5-7.5s-7.5 3.357-7.5 7.5v10c0 4.143 3.357 7.5 7.5 7.5z" fill="#143565" data-original="#000000" class=""/><path d="m34 409c-4.143 0-7.5 3.357-7.5 7.5v10c0 4.143 3.357 7.5 7.5 7.5s7.5-3.357 7.5-7.5v-10c0-4.143-3.357-7.5-7.5-7.5z" fill="#143565" data-original="#000000" class=""/><path d="m26.5 471v10c0 4.143 3.357 7.5 7.5 7.5s7.5-3.357 7.5-7.5v-10c0-4.143-3.357-7.5-7.5-7.5s-7.5 3.357-7.5 7.5z" fill="#143565" data-original="#000000" class=""/><path d="m312.5 136c0 31.154-25.346 56.5-56.5 56.5-14.125 0-27.646-5.362-37.954-14.693l8.79-.292c4.141-.138 7.385-3.605 7.247-7.745-.138-4.142-3.617-7.354-7.745-7.247l-24.249.807c-3.947.132-7.115 3.3-7.247 7.247l-.807 24.249c-.138 4.14 3.106 7.607 7.247 7.745.085.003.169.004.254.004 4.026 0 7.356-3.196 7.491-7.251l.176-5.29c12.876 11.123 29.486 17.466 46.797 17.466 39.425 0 71.5-32.075 71.5-71.5 0-4.143-3.357-7.5-7.5-7.5s-7.5 3.357-7.5 7.5z" fill="#143565" data-original="#000000" class=""/><path d="m277.917 102.23c.135 4.056 3.465 7.251 7.491 7.251.085 0 .169-.001.254-.004l24.249-.807c3.947-.132 7.115-3.3 7.247-7.247l.807-24.249c.138-4.14-3.106-7.607-7.247-7.745-4.129-.118-7.606 3.106-7.745 7.247l-.176 5.302c-12.888-11.12-29.533-17.478-46.797-17.478-39.425 0-71.5 32.075-71.5 71.5 0 4.143 3.357 7.5 7.5 7.5s7.5-3.357 7.5-7.5c0-31.154 25.346-56.5 56.5-56.5 14.335 0 27.706 5.264 38.009 14.691l-8.845.294c-4.141.138-7.385 3.606-7.247 7.745z" fill="#143565" data-original="#000000" class=""/><path d="m217.5 379.5c4.143 0 7.5-3.357 7.5-7.5v-10c0-4.143-3.357-7.5-7.5-7.5s-7.5 3.357-7.5 7.5v10c0 4.143 3.357 7.5 7.5 7.5z" fill="#143565" data-original="#000000" class=""/><path d="m217.5 409c-4.143 0-7.5 3.357-7.5 7.5v10c0 4.143 3.357 7.5 7.5 7.5s7.5-3.357 7.5-7.5v-10c0-4.143-3.357-7.5-7.5-7.5z" fill="#143565" data-original="#000000" class=""/><path d="m217.5 463.5c-4.143 0-7.5 3.357-7.5 7.5v10c0 4.143 3.357 7.5 7.5 7.5s7.5-3.357 7.5-7.5v-10c0-4.143-3.357-7.5-7.5-7.5z" fill="#143565" data-original="#000000" class=""/><path d="m512 348.5c0-9.649-7.851-17.5-17.5-17.5h-5.798c-4.143 0-7.5 3.357-7.5 7.5s3.357 7.5 7.5 7.5h5.798c1.379 0 2.5 1.121 2.5 2.5v35.333c0 1.379-1.121 2.5-2.5 2.5h-110c-1.379 0-2.5-1.121-2.5-2.5v-35.333c0-1.379 1.121-2.5 2.5-2.5h71.755c4.143 0 7.5-3.357 7.5-7.5s-3.357-7.5-7.5-7.5h-10.28c.011-.166.025-.331.025-.5v-48.661c0-4.143-3.357-7.5-7.5-7.5h-175v-27.535c21.112-.614 41.304-3.811 58.86-9.358 11.686 7.82 25.247 11.935 39.355 11.935.312 0 .625-.003.938-.007 37.081-.48 69.145-32.267 70.015-69.41.453-19.361-6.732-37.635-20.233-51.455-13.463-13.782-31.475-21.372-50.808-21.372-.043 0-.145 0-.249-.105-.114-.115-.112-.236-.112-.274.006-.416.008-.832.008-1.25 0-20.316-5.777-40.047-16.708-57.058-2.24-3.484-6.881-4.496-10.364-2.255-3.484 2.239-4.494 6.879-2.255 10.364 9.373 14.586 14.327 31.513 14.327 48.948 0 .354-.002.707-.006 1.065-.05 4.149 1.529 8.059 4.445 11.007 2.907 2.939 6.782 4.558 10.993 4.558h.011c15.17 0 29.371 5.985 39.988 16.854 10.654 10.907 16.325 25.334 15.967 40.622-.687 29.306-25.971 54.384-55.213 54.764-11.658.147-22.925-3.272-32.501-9.903-3.234-2.239-7.382-2.857-11.094-1.657-18.401 5.958-40.14 9.106-62.864 9.106s-44.463-3.148-62.866-9.107c-3.713-1.197-7.858-.579-11.095 1.66-9.572 6.627-20.792 10.047-32.497 9.901-29.243-.38-54.527-25.458-55.214-54.764-.358-15.288 5.313-29.715 15.967-40.622 10.617-10.868 24.818-16.854 40.068-16.854h.011c4.131 0 8.006-1.618 10.913-4.558 2.916-2.948 4.495-6.857 4.445-11.014-.004-.352-.006-.705-.006-1.059.001-49.905 40.497-90.506 90.274-90.506 20.693 0 40.158 6.828 56.291 19.746 3.232 2.589 7.953 2.068 10.542-1.167 2.589-3.232 2.066-7.953-1.167-10.542-18.552-14.855-41.872-23.037-65.666-23.037-58.048 0-105.273 47.33-105.273 105.506 0 .418.002.834.008 1.243 0 .045.002.166-.112.281-.104.105-.205.105-.339.105-19.243 0-37.255 7.59-50.718 21.372-13.501 13.82-20.687 32.094-20.233 51.455.87 37.144 32.934 68.93 70.016 69.41 14.408.206 28.352-3.936 40.292-11.928 17.558 5.547 37.749 8.744 58.86 9.358v27.535h-175c-4.143 0-7.5 3.357-7.5 7.5v48.663c0 .169.014.334.025.5h-48.526c-9.649 0-17.5 7.851-17.5 17.5v35.333c0 3.718 1.174 7.162 3.159 10-1.985 2.838-3.159 6.282-3.159 10v35.334c0 3.718 1.174 7.162 3.159 10-1.985 2.838-3.159 6.282-3.159 10v35.333c0 9.649 7.851 17.5 17.5 17.5h45.714c4.143 0 7.5-3.357 7.5-7.5s-3.357-7.5-7.5-7.5h-45.714c-1.379 0-2.5-1.121-2.5-2.5v-35.333c0-1.379 1.121-2.5 2.5-2.5h110c1.379 0 2.5 1.121 2.5 2.5v35.333c0 1.379-1.121 2.5-2.5 2.5h-30.239c-4.143 0-7.5 3.357-7.5 7.5s3.357 7.5 7.5 7.5h30.239c9.649 0 17.5-7.851 17.5-17.5v-35.333c0-3.718-1.174-7.162-3.159-10 1.985-2.838 3.159-6.282 3.159-10v-35.334c0-3.718-1.174-7.162-3.159-10 1.985-2.838 3.159-6.282 3.159-10v-35.333c0-9.649-7.851-17.5-17.5-17.5h-46.525c.011-.166.025-.331.025-.5v-41.161h167.5v41.661h-47.5c-9.649 0-17.5 7.851-17.5 17.5v35.333c0 3.718 1.174 7.162 3.159 10-1.985 2.838-3.159 6.282-3.159 10v35.334c0 3.718 1.174 7.162 3.159 10-1.985 2.838-3.159 6.282-3.159 10v35.333c0 9.649 7.851 17.5 17.5 17.5h110c9.649 0 17.5-7.851 17.5-17.5v-35.333c0-3.718-1.174-7.162-3.159-10 1.985-2.838 3.159-6.282 3.159-10v-35.334c0-3.718-1.174-7.162-3.159-10 1.985-2.838 3.159-6.282 3.159-10v-35.333c0-9.649-7.851-17.5-17.5-17.5h-47.5v-41.661h167.5v41.161c0 .169.014.334.025.5h-46.525c-9.649 0-17.5 7.851-17.5 17.5v35.333c0 3.718 1.174 7.162 3.159 10-1.985 2.838-3.159 6.282-3.159 10v35.334c0 3.718 1.174 7.162 3.159 10-1.985 2.838-3.159 6.282-3.159 10v35.333c0 9.649 7.851 17.5 17.5 17.5h110c9.649 0 17.5-7.851 17.5-17.5v-35.333c0-3.718-1.174-7.162-3.159-10 1.985-2.838 3.159-6.282 3.159-10v-35.334c0-3.718-1.174-7.162-3.159-10 1.985-2.838 3.159-6.282 3.159-10zm-382 90.667c0 1.379-1.121 2.5-2.5 2.5h-110c-1.379 0-2.5-1.121-2.5-2.5v-35.334c0-1.379 1.121-2.5 2.5-2.5h110c1.379 0 2.5 1.121 2.5 2.5zm-2.5-93.167c1.379 0 2.5 1.121 2.5 2.5v35.333c0 1.379-1.121 2.5-2.5 2.5h-110c-1.379 0-2.5-1.121-2.5-2.5v-35.333c0-1.379 1.121-2.5 2.5-2.5zm186 148.5c0 1.379-1.121 2.5-2.5 2.5h-110c-1.379 0-2.5-1.121-2.5-2.5v-35.333c0-1.379 1.121-2.5 2.5-2.5h110c1.379 0 2.5 1.121 2.5 2.5zm0-55.333c0 1.379-1.121 2.5-2.5 2.5h-110c-1.379 0-2.5-1.121-2.5-2.5v-35.334c0-1.379 1.121-2.5 2.5-2.5h110c1.379 0 2.5 1.121 2.5 2.5zm-2.5-93.167c1.379 0 2.5 1.121 2.5 2.5v35.333c0 1.379-1.121 2.5-2.5 2.5h-110c-1.379 0-2.5-1.121-2.5-2.5v-35.333c0-1.379 1.121-2.5 2.5-2.5zm186 148.5c0 1.379-1.121 2.5-2.5 2.5h-110c-1.379 0-2.5-1.121-2.5-2.5v-35.333c0-1.379 1.121-2.5 2.5-2.5h110c1.379 0 2.5 1.121 2.5 2.5zm0-55.333c0 1.379-1.121 2.5-2.5 2.5h-110c-1.379 0-2.5-1.121-2.5-2.5v-35.334c0-1.379 1.121-2.5 2.5-2.5h110c1.379 0 2.5 1.121 2.5 2.5z" fill="#143565" data-original="#000000" class=""/><path d="m393.5 362v10c0 4.143 3.357 7.5 7.5 7.5s7.5-3.357 7.5-7.5v-10c0-4.143-3.357-7.5-7.5-7.5s-7.5 3.357-7.5 7.5z" fill="#143565" data-original="#000000" class=""/><path d="m401 409c-4.143 0-7.5 3.357-7.5 7.5v10c0 4.143 3.357 7.5 7.5 7.5s7.5-3.357 7.5-7.5v-10c0-4.143-3.357-7.5-7.5-7.5z" fill="#143565" data-original="#000000" class=""/><path d="m401 463.5c-4.143 0-7.5 3.357-7.5 7.5v10c0 4.143 3.357 7.5 7.5 7.5s7.5-3.357 7.5-7.5v-10c0-4.143-3.357-7.5-7.5-7.5z" fill="#143565" data-original="#000000" class=""/></g></g></g></svg>
