<?xml version="1.0" encoding="UTF-8" standalone="no"?>
<!DOCTYPE svg PUBLIC "-//W3C//DTD SVG 1.1//EN" "http://www.w3.org/Graphics/SVG/1.1/DTD/svg11.dtd">
<!-- Created with Vectornator (http://vectornator.io/) -->
<svg height="100%" stroke-miterlimit="10" style="fill-rule:nonzero;clip-rule:evenodd;stroke-linecap:round;stroke-linejoin:round;" version="1.1" viewBox="0 0 511.985 511.985" width="100%" xml:space="preserve" xmlns="http://www.w3.org/2000/svg" xmlns:xlink="http://www.w3.org/1999/xlink">
<defs/>
<clipPath id="ArtboardFrame">
<rect height="511.985" width="511.985" x="0" y="0"/>
</clipPath>
<g clip-path="url(#ArtboardFrame)" id="Untitled">
<g opacity="1">
<path d="M414.4 222.532C410.13 201.798 401.961 182.483 390.704 165.388L409.287 139.439L369.38 99.532L343.431 118.115C326.337 106.858 307.021 98.689 286.287 94.419L281.08 62.956L224.645 62.956L219.438 94.419C198.704 98.689 179.388 106.858 162.294 118.115L136.345 99.532L96.437 139.44L115.02 165.389C103.763 182.483 95.594 201.799 91.324 222.533L59.861 227.74L59.861 284.175L91.324 289.382C95.594 310.116 103.763 329.431 115.02 346.526L96.437 372.475L136.345 412.383L162.294 393.8C179.388 405.057 198.704 413.226 219.438 417.496L224.645 448.959L281.08 448.959L286.287 417.496C307.021 413.226 326.337 405.057 343.431 393.8L369.38 412.383L409.288 372.475L390.705 346.526C401.962 329.432 410.131 310.116 414.401 289.382L445.864 284.175L445.864 227.74L414.4 222.532Z" fill="#e4e4e4" fill-opacity="0" fill-rule="nonzero" opacity="1" stroke="none"/>
<path d="M146.87 255.956C146.87 197.418 194.325 149.963 252.863 149.963C311.401 149.963 358.856 197.418 358.856 255.956C358.856 314.494 311.401 361.949 252.863 361.949C194.325 361.949 146.87 314.494 146.87 255.956Z" fill="#f3f3f3" fill-opacity="0" fill-rule="nonzero" opacity="1" stroke="none"/>
<path d="M422.98 35.963C422.98 20.2433 435.723 7.5 451.443 7.5C467.163 7.5 479.906 20.2433 479.906 35.963C479.906 51.6827 467.163 64.426 451.443 64.426C435.723 64.426 422.98 51.6827 422.98 35.963Z" fill="#21af90" fill-rule="nonzero" opacity="1" stroke="none"/>
<path d="M33.243 35.963C33.243 20.2433 45.9863 7.5 61.706 7.5C77.4257 7.5 90.169 20.2433 90.169 35.963C90.169 51.6827 77.4257 64.426 61.706 64.426C45.9863 64.426 33.243 51.6827 33.243 35.963Z" fill="#21af90" fill-rule="nonzero" opacity="1" stroke="none"/>
<path d="M411.227 476.022C411.227 460.302 423.97 447.559 439.69 447.559C455.41 447.559 468.153 460.302 468.153 476.022C468.153 491.742 455.41 504.485 439.69 504.485C423.97 504.485 411.227 491.742 411.227 476.022Z" fill="#21af90" fill-rule="nonzero" opacity="1" stroke="none"/>
<path d="M32.079 476.022C32.079 460.302 44.8223 447.559 60.542 447.559C76.2617 447.559 89.005 460.302 89.005 476.022C89.005 491.742 76.2617 504.485 60.542 504.485C44.8223 504.485 32.079 491.742 32.079 476.022Z" fill="#21af90" fill-rule="nonzero" opacity="1" stroke="none"/>
<g opacity="1">
<path d="M363.431 118.115L377.726 107.878L369.38 99.532L352.58 111.563C356.285 113.613 359.908 115.794 363.431 118.115Z" fill="#e4e4e4" fill-opacity="0" fill-rule="nonzero" opacity="1" stroke="none"/>
<path d="M182.295 118.115C199.389 106.858 218.705 98.689 239.439 94.419L244.646 62.956L224.646 62.956L219.439 94.419C202.979 97.809 187.417 103.664 173.146 111.563L182.295 118.115Z" fill="#e4e4e4" fill-opacity="0" fill-rule="nonzero" opacity="1" stroke="none"/>
<path d="M363.431 393.797C359.908 396.117 356.285 398.298 352.58 400.349L369.38 412.38L377.726 404.034L363.431 393.797Z" fill="#e4e4e4" fill-opacity="0" fill-rule="nonzero" opacity="1" stroke="none"/>
<path d="M116.438 372.473L135.021 346.524C123.764 329.43 115.595 310.114 111.325 289.38L79.862 284.173L79.862 227.738L111.325 222.531C115.595 201.797 123.764 182.482 135.021 165.387L116.438 139.438L148 107.877L136.346 99.531L96.438 139.439L115.021 165.388C103.764 182.482 95.595 201.798 91.325 222.532L59.862 227.739L59.862 284.174L91.325 289.381C95.595 310.115 103.764 329.43 115.021 346.525L96.438 372.474L136.346 412.382L148 404.035L116.438 372.473Z" fill="#e4e4e4" fill-opacity="0" fill-rule="nonzero" opacity="1" stroke="none"/>
<path d="M182.295 393.797L173.146 400.349C187.417 408.248 202.978 414.103 219.439 417.493L224.646 448.956L244.646 448.956L239.439 417.493C218.705 413.223 199.389 405.054 182.295 393.797Z" fill="#e4e4e4" fill-opacity="0" fill-rule="nonzero" opacity="1" stroke="none"/>
</g>
<path d="M166.87 255.956C166.87 200.788 209.013 155.476 262.863 150.436C200.223 144.574 146.87 193.825 146.87 255.956C146.87 318.12 200.261 367.334 262.863 361.476C209.013 356.436 166.87 311.124 166.87 255.956Z" fill="#f3f3f3" fill-opacity="0" fill-rule="nonzero" opacity="1" stroke="none"/>
<path d="M461.443 9.311C442.911 2.354 422.98 16.055 422.98 35.963C422.98 55.846 442.884 69.583 461.443 62.615C436.868 53.39 436.886 18.53 461.443 9.311Z" fill="#21af90" fill-rule="nonzero" opacity="1" stroke="none"/>
<path d="M71.706 9.311C53.173 2.353 33.243 16.056 33.243 35.963C33.243 55.846 53.147 69.583 71.706 62.615C47.13 53.39 47.148 18.53 71.706 9.311Z" fill="#21af90" fill-rule="nonzero" opacity="1" stroke="none"/>
<path d="M449.69 449.369C431.158 442.411 411.227 456.114 411.227 476.021C411.227 495.903 431.131 509.641 449.69 502.673C425.114 493.448 425.132 458.588 449.69 449.369Z" fill="#21af90" fill-rule="nonzero" opacity="1" stroke="none"/>
<path d="M70.542 449.369C52.009 442.411 32.079 456.114 32.079 476.021C32.079 495.904 51.983 509.641 70.542 502.673C45.966 493.448 45.985 458.589 70.542 449.369Z" fill="#21af90" fill-rule="nonzero" opacity="1" stroke="none"/>
<path d="M370.188 422.177L419.084 373.281L399.752 346.282C409.397 330.645 416.401 313.758 420.628 295.949L453.363 290.538L453.363 221.374L420.628 215.963C416.401 198.154 409.397 181.267 399.752 165.63L419.084 138.631L370.188 89.735L343.188 109.067C337.746 105.713 332.08 102.641 326.286 99.905L319.88 113.468C330.537 118.502 337.076 122.909 343.609 127.215L368.577 109.337L399.482 140.242L381.606 165.208C394.71 185.11 402.03 199.629 408.096 229.096L438.363 234.099L438.363 277.814L408.096 282.817C403.325 305.988 398.25 321.425 381.606 346.705L399.482 371.671L368.577 402.576L343.611 384.7C323.709 397.804 309.19 405.124 279.723 411.19L274.72 441.457L231.005 441.457L226.003 411.19C202.962 406.446 187.504 401.418 162.116 384.7L137.149 402.576L106.245 371.671L124.121 346.705C111.061 326.87 103.707 312.343 97.631 282.817L67.364 277.814L67.364 234.099L97.631 229.096C102.415 205.848 107.507 190.441 124.121 165.208L106.245 140.242L137.149 109.337L162.116 127.213C181.895 114.189 196.396 106.818 226.003 100.723L231.005 70.456L274.72 70.456L279.723 100.72C287.841 102.396 294.841 103.75 305.547 107.562L310.578 93.431C304.828 91.384 298.887 89.629 292.855 88.195L287.444 55.457L218.28 55.457L212.87 88.192C195.06 92.419 178.172 99.423 162.537 109.068L135.537 89.736L86.641 138.632L105.973 165.631C96.328 181.268 89.324 198.155 85.097 215.964L52.362 221.375L52.362 290.539L85.097 295.95C89.324 313.759 96.328 330.646 105.973 346.283L86.641 373.282L135.537 422.178L162.537 402.846C178.172 412.491 195.06 419.495 212.87 423.722L218.28 456.457L287.445 456.457L292.856 423.722C310.665 419.495 327.552 412.491 343.189 402.846L370.188 422.177Z" fill="#326ce5" fill-rule="nonzero" opacity="1" stroke="none"/>
<path d="M252.863 369.446C315.442 369.446 366.353 318.535 366.353 255.956C366.353 193.377 315.442 142.466 252.863 142.466C190.284 142.466 139.373 193.377 139.373 255.956C139.373 283.497 149.36 310.056 167.494 330.74L178.773 320.851C163.039 302.904 154.373 279.857 154.373 255.955C154.373 201.647 198.556 157.465 252.863 157.465C307.17 157.465 351.353 201.648 351.353 255.955C351.353 310.262 307.17 354.445 252.863 354.445C229.308 354.445 206.516 346.001 188.683 330.669L178.904 342.042C199.456 359.715 225.722 369.446 252.863 369.446Z" fill="#326ce5" fill-rule="nonzero" opacity="1" stroke="none"/>
<path d="M233.163 294.918L233.163 216.44L180.573 216.44L180.573 294.918L195.573 294.918L195.573 266.929L218.163 266.929L218.163 294.918L233.163 294.918ZM195.572 251.929L195.572 231.44L218.162 231.44L218.162 251.928L195.572 251.928L195.572 251.929Z" fill="#326ce5" fill-rule="nonzero" opacity="1" stroke="none"/>
<path d="M260.246 266.394L297.837 266.394L297.837 216.44L245.247 216.44L245.247 294.918L260.247 294.918L260.247 266.394L260.246 266.394ZM260.247 231.44L282.837 231.44L282.837 251.393L260.247 251.393L260.247 231.44Z" fill="#326ce5" fill-rule="nonzero" opacity="1" stroke="none"/>
<path d="M310.153 216.994L325.153 216.994L325.153 294.918L310.153 294.918L310.153 216.994Z" fill="#326ce5" fill-rule="nonzero" opacity="1" stroke="none"/>
<path d="M451.444 0C431.614 0 415.48 16.134 415.48 35.964C415.48 53.222 427.702 67.674 443.943 71.134L443.943 181.056L435.823 181.056L435.823 196.056L458.943 196.056L458.943 71.135C475.185 67.676 487.407 53.223 487.407 35.964C487.407 16.134 471.274-3.8147e-06 451.444 0ZM451.444 56.927C439.884 56.927 430.48 47.523 430.48 35.964C430.48 24.404 439.884 15 451.444 15C463.003 15 472.407 24.404 472.407 35.964C472.407 47.522 463.002 56.927 451.444 56.927Z" fill="#326ce5" fill-rule="nonzero" opacity="1" stroke="none"/>
<path d="M61.706 71.927C78.749 71.927 93.051 60.006 96.738 44.067L173.784 44.067L173.784 74.596L188.784 74.596L188.784 29.066L96.998 29.066C93.771 12.526 79.176 1.90735e-06 61.706 1.90735e-06C41.876 1.90735e-06 25.743 16.134 25.743 35.964C25.743 55.794 41.875 71.927 61.706 71.927ZM61.706 15C73.265 15 82.669 24.404 82.669 35.964C82.669 47.523 73.265 56.927 61.706 56.927C50.147 56.927 40.743 47.523 40.743 35.964C40.742 24.404 50.146 15 61.706 15Z" fill="#326ce5" fill-rule="nonzero" opacity="1" stroke="none"/>
<path d="M439.69 440.059C421.942 440.059 407.164 452.986 404.255 469.916L327.613 469.916L327.613 438.966L312.613 438.966L312.613 484.916L404.841 484.916C408.81 500.458 422.929 511.985 439.69 511.985C459.52 511.985 475.653 495.851 475.653 476.021C475.653 456.191 459.52 440.059 439.69 440.059ZM439.69 496.985C428.13 496.985 418.726 487.581 418.726 476.021C418.726 464.462 428.13 455.058 439.69 455.058C451.249 455.058 460.653 464.462 460.653 476.021C460.653 487.581 451.249 496.985 439.69 496.985Z" fill="#326ce5" fill-rule="nonzero" opacity="1" stroke="none"/>
<path d="M68.043 440.851L68.043 333.926L71.063 333.926L71.063 318.926L53.043 318.926L53.043 440.851C36.801 444.31 24.579 458.763 24.579 476.022C24.579 495.852 40.712 511.986 60.542 511.986C80.372 511.986 96.505 495.852 96.505 476.022C96.505 458.764 84.284 444.312 68.043 440.851ZM60.542 496.985C48.983 496.985 39.579 487.581 39.579 476.021C39.579 464.462 48.983 455.058 60.542 455.058C72.101 455.058 81.505 464.462 81.505 476.021C81.505 487.581 72.101 496.985 60.542 496.985Z" fill="#326ce5" fill-rule="nonzero" opacity="1" stroke="none"/>
<path d="M381.355 255.957C381.353 235.591 376.597 215.624 367.167 197.305L380.503 190.44C390.946 210.723 396.353 233.031 396.356 255.956L381.355 255.957ZM359.999 185.092C357.396 181.172 354.545 177.352 351.524 173.736L363.036 164.119C366.407 168.155 369.59 172.42 372.495 176.794L359.999 185.092ZM341.859 163.365C338.456 160.094 334.843 156.98 331.123 154.113L340.278 142.23C344.43 145.43 348.461 148.903 352.256 152.552L341.859 163.365Z" fill="#ffffff" fill-opacity="0" fill-rule="nonzero" opacity="1" stroke="none"/>
</g>
</g>
</svg>
