<?xml version="1.0" encoding="UTF-8" standalone="no"?>
<!DOCTYPE svg PUBLIC "-//W3C//DTD SVG 1.1//EN" "http://www.w3.org/Graphics/SVG/1.1/DTD/svg11.dtd">
<!-- Created with Vectornator (http://vectornator.io/) -->
<svg stroke-miterlimit="10" style="fill-rule:nonzero;clip-rule:evenodd;stroke-linecap:round;stroke-linejoin:round;" version="1.1" viewBox="0 0 512 512" xml:space="preserve" xmlns="http://www.w3.org/2000/svg" xmlns:xlink="http://www.w3.org/1999/xlink">
<defs/>
<clipPath id="ArtboardFrame">
<rect height="512" width="512" x="0" y="0"/>
</clipPath>
<g clip-path="url(#ArtboardFrame)" id="Untitled">
<g opacity="1">
<path d="M127.5 393.833L17.5 393.833C11.977 393.833 7.5 389.356 7.5 383.833L7.5 348.5C7.5 342.977 11.977 338.5 17.5 338.5L127.5 338.5C133.023 338.5 137.5 342.977 137.5 348.5L137.5 383.833C137.5 389.356 133.023 393.833 127.5 393.833Z" fill="#f3f3f3" fill-opacity="0" fill-rule="nonzero" opacity="1" stroke="none"/>
<path d="M127.5 338.5L97.5 338.5C103.023 338.5 107.5 342.977 107.5 348.5L107.5 383.833C107.5 389.355 103.023 393.833 97.5 393.833L127.5 393.833C133.023 393.833 137.5 389.355 137.5 383.833L137.5 348.5C137.5 342.977 133.023 338.5 127.5 338.5Z" fill="#21af90" fill-rule="nonzero" opacity="1" stroke="none"/>
<path d="M127.5 449.167L17.5 449.167C11.977 449.167 7.5 444.69 7.5 439.167L7.5 403.834C7.5 398.311 11.977 393.834 17.5 393.834L127.5 393.834C133.023 393.834 137.5 398.311 137.5 403.834L137.5 439.167C137.5 444.69 133.023 449.167 127.5 449.167Z" fill="#21af90" fill-rule="nonzero" opacity="1" stroke="none"/>
<path d="M127.5 393.833L97.5 393.833C103.023 393.833 107.5 398.31 107.5 403.833L107.5 439.166C107.5 444.689 103.023 449.166 97.5 449.166L127.5 449.166C133.023 449.166 137.5 444.689 137.5 439.166L137.5 403.833C137.5 398.311 133.023 393.833 127.5 393.833Z" fill="#f3f3f3" fill-opacity="0" fill-rule="nonzero" opacity="1" stroke="none"/>
<path d="M127.5 504.5L17.5 504.5C11.977 504.5 7.5 500.023 7.5 494.5L7.5 459.167C7.5 453.644 11.977 449.167 17.5 449.167L127.5 449.167C133.023 449.167 137.5 453.644 137.5 459.167L137.5 494.5C137.5 500.023 133.023 504.5 127.5 504.5Z" fill="#f3f3f3" fill-opacity="0" fill-rule="nonzero" opacity="1" stroke="none"/>
<path d="M127.5 449.167L97.5 449.167C103.023 449.167 107.5 453.644 107.5 459.167L107.5 494.5C107.5 500.023 103.023 504.5 97.5 504.5L127.5 504.5C133.023 504.5 137.5 500.023 137.5 494.5L137.5 459.167C137.5 453.644 133.023 449.167 127.5 449.167Z" fill="#21af90" fill-rule="nonzero" opacity="1" stroke="none"/>
<path d="M361.717 114.636L361.631 114.636C357.25 114.639 353.715 111.051 353.766 106.66C353.771 106.276 353.773 105.891 353.773 105.506C353.774 51.379 309.999 7.50001 256 7.50001C202.001 7.50001 158.226 51.379 158.226 105.506C158.226 105.891 158.228 106.276 158.233 106.66C158.285 111.051 154.749 114.639 150.368 114.636L150.282 114.636C114.721 114.636 85.99 143.951 86.83 179.788C87.609 213.052 116.252 241.444 149.444 241.874C163.144 242.051 175.86 237.875 186.309 230.64C187.63 229.725 189.298 229.456 190.826 229.951C209.257 235.917 231.736 239.422 256 239.422C280.264 239.422 302.743 235.917 321.174 229.951C322.702 229.456 324.37 229.726 325.691 230.64C336.139 237.874 348.855 242.051 362.556 241.874C395.747 241.444 424.391 213.052 425.17 179.788C426.009 143.951 397.278 114.636 361.717 114.636Z" fill="#f3f3f3" fill-opacity="0" fill-rule="nonzero" opacity="1" stroke="none"/>
<path d="M361.717 114.636L361.631 114.636C357.25 114.639 353.715 111.051 353.766 106.66C353.771 106.276 353.773 105.891 353.773 105.506C353.773 51.379 309.999 7.50001 256 7.50001C239.757 7.50001 224.442 11.475 210.963 18.5C215.865 17.741 220.887 17.346 226 17.346C279.999 17.346 323.773 61.225 323.773 115.352C323.773 115.737 323.771 116.122 323.766 116.506C323.714 120.897 327.25 124.485 331.631 124.482L331.717 124.482C367.278 124.482 396.009 153.797 395.17 189.634C394.667 211.131 382.517 230.582 365.031 241.777C397.158 240.01 424.41 212.222 425.169 179.788C426.009 143.951 397.278 114.636 361.717 114.636Z" fill="#f3f3f3" fill-opacity="0" fill-rule="nonzero" opacity="1" stroke="none"/>
<path d="M175.367 127.641C186.774 131.136 204.753 140.257 212.875 163.758C213.875 166.65 218.138 165.985 218.264 162.927C218.722 151.768 217.544 137.446 210.119 128.593C201.554 118.381 185.923 119.832 175.55 122.295C172.811 122.945 172.676 126.816 175.367 127.641Z" fill="#f3f3f3" fill-opacity="0" fill-rule="nonzero" opacity="1" stroke="none"/>
<path d="M311 393.833L201 393.833C195.477 393.833 191 389.356 191 383.833L191 348.5C191 342.977 195.477 338.5 201 338.5L311 338.5C316.523 338.5 321 342.977 321 348.5L321 383.833C321 389.356 316.523 393.833 311 393.833Z" fill="#f3f3f3" fill-opacity="0" fill-rule="nonzero" opacity="1" stroke="none"/>
<path d="M311 338.5L281 338.5C286.523 338.5 291 342.977 291 348.5L291 383.833C291 389.355 286.523 393.833 281 393.833L311 393.833C316.523 393.833 321 389.355 321 383.833L321 348.5C321 342.977 316.523 338.5 311 338.5Z" fill="#21af90" fill-rule="nonzero" opacity="1" stroke="none"/>
<path d="M311 449.167L201 449.167C195.477 449.167 191 444.69 191 439.167L191 403.834C191 398.311 195.477 393.834 201 393.834L311 393.834C316.523 393.834 321 398.311 321 403.834L321 439.167C321 444.69 316.523 449.167 311 449.167Z" fill="#21af90" fill-rule="nonzero" opacity="1" stroke="none"/>
<path d="M311 393.833L281 393.833C286.523 393.833 291 398.31 291 403.833L291 439.166C291 444.689 286.523 449.166 281 449.166L311 449.166C316.523 449.166 321 444.689 321 439.166L321 403.833C321 398.311 316.523 393.833 311 393.833Z" fill="#f3f3f3" fill-opacity="0" fill-rule="nonzero" opacity="1" stroke="none"/>
<path d="M311 504.5L201 504.5C195.477 504.5 191 500.023 191 494.5L191 459.167C191 453.644 195.477 449.167 201 449.167L311 449.167C316.523 449.167 321 453.644 321 459.167L321 494.5C321 500.023 316.523 504.5 311 504.5Z" fill="#f3f3f3" fill-opacity="0" fill-rule="nonzero" opacity="1" stroke="none"/>
<path d="M311 449.167L281 449.167C286.523 449.167 291 453.644 291 459.167L291 494.5C291 500.023 286.523 504.5 281 504.5L311 504.5C316.523 504.5 321 500.023 321 494.5L321 459.167C321 453.644 316.523 449.167 311 449.167Z" fill="#21af90" fill-rule="nonzero" opacity="1" stroke="none"/>
<path d="M494.5 393.833L384.5 393.833C378.977 393.833 374.5 389.356 374.5 383.833L374.5 348.5C374.5 342.977 378.977 338.5 384.5 338.5L494.5 338.5C500.023 338.5 504.5 342.977 504.5 348.5L504.5 383.833C504.5 389.356 500.023 393.833 494.5 393.833Z" fill="#f3f3f3" fill-opacity="0" fill-rule="nonzero" opacity="1" stroke="none"/>
<path d="M493.095 395.327L463.095 395.327C468.618 395.327 473.095 399.804 473.095 405.327L473.095 440.66C473.095 446.182 468.618 450.66 463.095 450.66L493.095 450.66C498.618 450.66 503.095 446.182 503.095 440.66L503.095 405.327C503.095 399.804 498.618 395.327 493.095 395.327Z" fill="#21af90" fill-rule="nonzero" opacity="1" stroke="none"/>
<path d="M495.712 394.962L385.712 394.962C380.189 394.962 375.712 390.485 375.712 384.962L375.712 349.629C375.712 344.106 380.189 339.629 385.712 339.629L495.712 339.629C501.235 339.629 505.712 344.106 505.712 349.629L505.712 384.962C505.712 390.485 501.235 394.962 495.712 394.962Z" fill="#21af90" fill-rule="nonzero" opacity="1" stroke="none"/>
<path d="M494.5 393.833L464.5 393.833C470.023 393.833 474.5 398.31 474.5 403.833L474.5 439.166C474.5 444.689 470.023 449.166 464.5 449.166L494.5 449.166C500.023 449.166 504.5 444.689 504.5 439.166L504.5 403.833C504.5 398.311 500.023 393.833 494.5 393.833Z" fill="#f3f3f3" fill-opacity="0" fill-rule="nonzero" opacity="1" stroke="none"/>
<path d="M494.5 504.5L384.5 504.5C378.977 504.5 374.5 500.023 374.5 494.5L374.5 459.167C374.5 453.644 378.977 449.167 384.5 449.167L494.5 449.167C500.023 449.167 504.5 453.644 504.5 459.167L504.5 494.5C504.5 500.023 500.023 504.5 494.5 504.5Z" fill="#f3f3f3" fill-opacity="0" fill-rule="nonzero" opacity="1" stroke="none"/>
<path d="M494.5 449.167L464.5 449.167C470.023 449.167 474.5 453.644 474.5 459.167L474.5 494.5C474.5 500.023 470.023 504.5 464.5 504.5L494.5 504.5C500.023 504.5 504.5 500.023 504.5 494.5L504.5 459.167C504.5 453.644 500.023 449.167 494.5 449.167Z" fill="#21af90" fill-rule="nonzero" opacity="1" stroke="none"/>
<g opacity="1">
<path d="M34 379.5C38.143 379.5 41.5 376.143 41.5 372L41.5 362C41.5 357.857 38.143 354.5 34 354.5C29.857 354.5 26.5 357.857 26.5 362L26.5 372C26.5 376.143 29.857 379.5 34 379.5Z" fill="#326ce5" fill-rule="nonzero" opacity="1" stroke="none"/>
<path d="M34 409C29.857 409 26.5 412.357 26.5 416.5L26.5 426.5C26.5 430.643 29.857 434 34 434C38.143 434 41.5 430.643 41.5 426.5L41.5 416.5C41.5 412.357 38.143 409 34 409Z" fill="#326ce5" fill-rule="nonzero" opacity="1" stroke="none"/>
<path d="M26.5 471L26.5 481C26.5 485.143 29.857 488.5 34 488.5C38.143 488.5 41.5 485.143 41.5 481L41.5 471C41.5 466.857 38.143 463.5 34 463.5C29.857 463.5 26.5 466.857 26.5 471Z" fill="#326ce5" fill-rule="nonzero" opacity="1" stroke="none"/>
<path d="M312.5 136C312.5 167.154 287.154 192.5 256 192.5C241.875 192.5 228.354 187.138 218.046 177.807L226.836 177.515C230.977 177.377 234.221 173.91 234.083 169.77C233.945 165.628 230.466 162.416 226.338 162.523L202.089 163.33C198.142 163.462 194.974 166.63 194.842 170.577L194.035 194.826C193.897 198.966 197.141 202.433 201.282 202.571C201.367 202.574 201.451 202.575 201.536 202.575C205.562 202.575 208.892 199.379 209.027 195.324L209.203 190.034C222.079 201.157 238.689 207.5 256 207.5C295.425 207.5 327.5 175.425 327.5 136C327.5 131.857 324.143 128.5 320 128.5C315.857 128.5 312.5 131.857 312.5 136Z" fill="#326ce5" fill-rule="nonzero" opacity="1" stroke="none"/>
<path d="M277.917 102.23C278.052 106.286 281.382 109.481 285.408 109.481C285.493 109.481 285.577 109.48 285.662 109.477L309.911 108.67C313.858 108.538 317.026 105.37 317.158 101.423L317.965 77.174C318.103 73.034 314.859 69.567 310.718 69.429C306.589 69.311 303.112 72.535 302.973 76.676L302.797 81.978C289.909 70.858 273.264 64.5 256 64.5C216.575 64.5 184.5 96.575 184.5 136C184.5 140.143 187.857 143.5 192 143.5C196.143 143.5 199.5 140.143 199.5 136C199.5 104.846 224.846 79.5 256 79.5C270.335 79.5 283.706 84.764 294.009 94.191L285.164 94.485C281.023 94.623 277.779 98.091 277.917 102.23Z" fill="#326ce5" fill-rule="nonzero" opacity="1" stroke="none"/>
<path d="M217.5 379.5C221.643 379.5 225 376.143 225 372L225 362C225 357.857 221.643 354.5 217.5 354.5C213.357 354.5 210 357.857 210 362L210 372C210 376.143 213.357 379.5 217.5 379.5Z" fill="#326ce5" fill-rule="nonzero" opacity="1" stroke="none"/>
<path d="M217.5 409C213.357 409 210 412.357 210 416.5L210 426.5C210 430.643 213.357 434 217.5 434C221.643 434 225 430.643 225 426.5L225 416.5C225 412.357 221.643 409 217.5 409Z" fill="#326ce5" fill-rule="nonzero" opacity="1" stroke="none"/>
<path d="M217.5 463.5C213.357 463.5 210 466.857 210 471L210 481C210 485.143 213.357 488.5 217.5 488.5C221.643 488.5 225 485.143 225 481L225 471C225 466.857 221.643 463.5 217.5 463.5Z" fill="#326ce5" fill-rule="nonzero" opacity="1" stroke="none"/>
<path d="M512 348.5C512 338.851 504.149 331 494.5 331L488.702 331C484.559 331 481.202 334.357 481.202 338.5C481.202 342.643 484.559 346 488.702 346L494.5 346C495.879 346 497 347.121 497 348.5L497 383.833C497 385.212 495.879 386.333 494.5 386.333L384.5 386.333C383.121 386.333 382 385.212 382 383.833L382 348.5C382 347.121 383.121 346 384.5 346L456.255 346C460.398 346 463.755 342.643 463.755 338.5C463.755 334.357 460.398 331 456.255 331L445.975 331C445.986 330.834 446 330.669 446 330.5L446 281.839C446 277.696 442.643 274.339 438.5 274.339L263.5 274.339L263.5 246.804C284.612 246.19 304.804 242.993 322.36 237.446C334.046 245.266 347.607 249.381 361.715 249.381C362.027 249.381 362.34 249.378 362.653 249.374C399.734 248.894 431.798 217.107 432.668 179.964C433.121 160.603 425.936 142.329 412.435 128.509C398.972 114.727 380.96 107.137 361.627 107.137C361.584 107.137 361.482 107.137 361.378 107.032C361.264 106.917 361.266 106.796 361.266 106.758C361.272 106.342 361.274 105.926 361.274 105.508C361.274 85.192 355.497 65.461 344.566 48.45C342.326 44.966 337.685 43.954 334.202 46.195C330.718 48.434 329.708 53.074 331.947 56.559C341.32 71.145 346.274 88.072 346.274 105.507C346.274 105.861 346.272 106.214 346.268 106.572C346.218 110.721 347.797 114.631 350.713 117.579C353.62 120.518 357.495 122.137 361.706 122.137L361.717 122.137C376.887 122.137 391.088 128.122 401.705 138.991C412.359 149.898 418.03 164.325 417.672 179.613C416.985 208.919 391.701 233.997 362.459 234.377C350.801 234.524 339.534 231.105 329.958 224.474C326.724 222.235 322.576 221.617 318.864 222.817C300.463 228.775 278.724 231.923 256 231.923C233.276 231.923 211.537 228.775 193.134 222.816C189.421 221.619 185.276 222.237 182.039 224.476C172.467 231.103 161.247 234.523 149.542 234.377C120.299 233.997 95.015 208.919 94.328 179.613C93.97 164.325 99.641 149.898 110.295 138.991C120.912 128.123 135.113 122.137 150.363 122.137L150.374 122.137C154.505 122.137 158.38 120.519 161.287 117.579C164.203 114.631 165.782 110.722 165.732 106.565C165.728 106.213 165.726 105.86 165.726 105.506C165.727 55.601 206.223 15 256 15C276.693 15 296.158 21.828 312.291 34.746C315.523 37.335 320.244 36.814 322.833 33.579C325.422 30.347 324.899 25.626 321.666 23.037C303.114 8.182 279.794 2.55462e-06 256 2.55462e-06C197.952 2.55462e-06 150.727 47.33 150.727 105.506C150.727 105.924 150.729 106.34 150.735 106.749C150.735 106.794 150.737 106.915 150.623 107.03C150.519 107.135 150.418 107.135 150.284 107.135C131.041 107.135 113.029 114.725 99.566 128.507C86.065 142.327 78.879 160.601 79.333 179.962C80.203 217.106 112.267 248.892 149.349 249.372C163.757 249.578 177.701 245.436 189.641 237.444C207.199 242.991 227.39 246.188 248.501 246.802L248.501 274.337L73.501 274.337C69.358 274.337 66.001 277.694 66.001 281.837L66.001 330.5C66.001 330.669 66.015 330.834 66.026 331L17.5 331C7.85099 331-5.59166e-06 338.851-5.59166e-06 348.5L-5.59166e-06 383.833C-5.59166e-06 387.551 1.17399 390.995 3.15899 393.833C1.17399 396.671-5.59166e-06 400.115-5.59166e-06 403.833L-5.59166e-06 439.167C-5.59166e-06 442.885 1.17399 446.329 3.15899 449.167C1.17399 452.005-5.59166e-06 455.449-5.59166e-06 459.167L-5.59166e-06 494.5C-5.59166e-06 504.149 7.85099 512 17.5 512L63.214 512C67.357 512 70.714 508.643 70.714 504.5C70.714 500.357 67.357 497 63.214 497L17.5 497C16.121 497 15 495.879 15 494.5L15 459.167C15 457.788 16.121 456.667 17.5 456.667L127.5 456.667C128.879 456.667 130 457.788 130 459.167L130 494.5C130 495.879 128.879 497 127.5 497L97.261 497C93.118 497 89.761 500.357 89.761 504.5C89.761 508.643 93.118 512 97.261 512L127.5 512C137.149 512 145 504.149 145 494.5L145 459.167C145 455.449 143.826 452.005 141.841 449.167C143.826 446.329 145 442.885 145 439.167L145 403.833C145 400.115 143.826 396.671 141.841 393.833C143.826 390.995 145 387.551 145 383.833L145 348.5C145 338.851 137.149 331 127.5 331L80.975 331C80.986 330.834 81 330.669 81 330.5L81 289.339L248.5 289.339L248.5 331L201 331C191.351 331 183.5 338.851 183.5 348.5L183.5 383.833C183.5 387.551 184.674 390.995 186.659 393.833C184.674 396.671 183.5 400.115 183.5 403.833L183.5 439.167C183.5 442.885 184.674 446.329 186.659 449.167C184.674 452.005 183.5 455.449 183.5 459.167L183.5 494.5C183.5 504.149 191.351 512 201 512L311 512C320.649 512 328.5 504.149 328.5 494.5L328.5 459.167C328.5 455.449 327.326 452.005 325.341 449.167C327.326 446.329 328.5 442.885 328.5 439.167L328.5 403.833C328.5 400.115 327.326 396.671 325.341 393.833C327.326 390.995 328.5 387.551 328.5 383.833L328.5 348.5C328.5 338.851 320.649 331 311 331L263.5 331L263.5 289.339L431 289.339L431 330.5C431 330.669 431.014 330.834 431.025 331L384.5 331C374.851 331 367 338.851 367 348.5L367 383.833C367 387.551 368.174 390.995 370.159 393.833C368.174 396.671 367 400.115 367 403.833L367 439.167C367 442.885 368.174 446.329 370.159 449.167C368.174 452.005 367 455.449 367 459.167L367 494.5C367 504.149 374.851 512 384.5 512L494.5 512C504.149 512 512 504.149 512 494.5L512 459.167C512 455.449 510.826 452.005 508.841 449.167C510.826 446.329 512 442.885 512 439.167L512 403.833C512 400.115 510.826 396.671 508.841 393.833C510.826 390.995 512 387.551 512 383.833L512 348.5ZM130 439.167C130 440.546 128.879 441.667 127.5 441.667L17.5 441.667C16.121 441.667 15 440.546 15 439.167L15 403.833C15 402.454 16.121 401.333 17.5 401.333L127.5 401.333C128.879 401.333 130 402.454 130 403.833L130 439.167ZM127.5 346C128.879 346 130 347.121 130 348.5L130 383.833C130 385.212 128.879 386.333 127.5 386.333L17.5 386.333C16.121 386.333 15 385.212 15 383.833L15 348.5C15 347.121 16.121 346 17.5 346L127.5 346ZM313.5 494.5C313.5 495.879 312.379 497 311 497L201 497C199.621 497 198.5 495.879 198.5 494.5L198.5 459.167C198.5 457.788 199.621 456.667 201 456.667L311 456.667C312.379 456.667 313.5 457.788 313.5 459.167L313.5 494.5ZM313.5 439.167C313.5 440.546 312.379 441.667 311 441.667L201 441.667C199.621 441.667 198.5 440.546 198.5 439.167L198.5 403.833C198.5 402.454 199.621 401.333 201 401.333L311 401.333C312.379 401.333 313.5 402.454 313.5 403.833L313.5 439.167ZM311 346C312.379 346 313.5 347.121 313.5 348.5L313.5 383.833C313.5 385.212 312.379 386.333 311 386.333L201 386.333C199.621 386.333 198.5 385.212 198.5 383.833L198.5 348.5C198.5 347.121 199.621 346 201 346L311 346ZM497 494.5C497 495.879 495.879 497 494.5 497L384.5 497C383.121 497 382 495.879 382 494.5L382 459.167C382 457.788 383.121 456.667 384.5 456.667L494.5 456.667C495.879 456.667 497 457.788 497 459.167L497 494.5ZM497 439.167C497 440.546 495.879 441.667 494.5 441.667L384.5 441.667C383.121 441.667 382 440.546 382 439.167L382 403.833C382 402.454 383.121 401.333 384.5 401.333L494.5 401.333C495.879 401.333 497 402.454 497 403.833L497 439.167Z" fill="#326ce5" fill-rule="nonzero" opacity="1" stroke="none"/>
<path d="M393.5 362L393.5 372C393.5 376.143 396.857 379.5 401 379.5C405.143 379.5 408.5 376.143 408.5 372L408.5 362C408.5 357.857 405.143 354.5 401 354.5C396.857 354.5 393.5 357.857 393.5 362Z" fill="#326ce5" fill-rule="nonzero" opacity="1" stroke="none"/>
<path d="M401 409C396.857 409 393.5 412.357 393.5 416.5L393.5 426.5C393.5 430.643 396.857 434 401 434C405.143 434 408.5 430.643 408.5 426.5L408.5 416.5C408.5 412.357 405.143 409 401 409Z" fill="#326ce5" fill-rule="nonzero" opacity="1" stroke="none"/>
<path d="M401 463.5C396.857 463.5 393.5 466.857 393.5 471L393.5 481C393.5 485.143 396.857 488.5 401 488.5C405.143 488.5 408.5 485.143 408.5 481L408.5 471C408.5 466.857 405.143 463.5 401 463.5Z" fill="#326ce5" fill-rule="nonzero" opacity="1" stroke="none"/>
</g>
</g>
</g>
</svg>
