
<?xml version="1.0"?>
<svg xmlns="http://www.w3.org/2000/svg" xmlns:xlink="http://www.w3.org/1999/xlink" xmlns:svgjs="http://svgjs.com/svgjs" version="1.1" width="512" height="512" x="0" y="0" viewBox="0 0 512 512" style="enable-background:new 0 0 512 512" xml:space="preserve" class=""><g><g xmlns="http://www.w3.org/2000/svg" fill-rule="evenodd"><g fill="#00ffb0"><path d="m69.45 390.292a25.036 25.036 0 1 1 7.337 17.708 24.987 24.987 0 0 1 -7.337-17.708z" fill="#6eabc9" data-original="#00ffb0"/><path d="m399.788 372.567a25.044 25.044 0 1 1 -7.344 17.725 24.937 24.937 0 0 1 7.344-17.725z" fill="#6eabc9" data-original="#00ffb0"/><path d="m417.5 429.189a48.243 48.243 0 0 1 48.243 48.243c0 1.255-.044 2.512-.143 3.762-.014.325-.042.651-.079.975v.031l-.026.019a80.574 80.574 0 0 1 -95.984 0l-.026-.019v-.032c-.029-.324-.061-.648-.086-.973-.1-1.251-.136-2.508-.136-3.763a48.243 48.243 0 0 1 48.237-48.243z" fill="#6eabc9" data-original="#00ffb0"/><path d="m142.74 477.432c0 1.254-.027 2.513-.129 3.764-.026.325-.056.649-.093.973v.031l-.025.019a80.574 80.574 0 0 1 -95.984 0l-.026-.019v-.032c-.029-.324-.054-.649-.079-.973-.095-1.251-.136-2.508-.136-3.763a48.24 48.24 0 1 1 96.479 0z" fill="#6eabc9" data-original="#00ffb0"/><path d="m207.977 159.167c-.03-.324-.055-.649-.079-.973q-.143-1.878-.143-3.763a48.243 48.243 0 0 1 96.486 0c0 1.254-.029 2.513-.129 3.763-.027.325-.057.65-.093.974v.031l-.025.019a80.576 80.576 0 0 1 -95.985 0l-.026-.019z" fill="#6eabc9" data-original="#00ffb0"/><path d="m238.287 85a25.063 25.063 0 1 1 17.713 7.33 25 25 0 0 1 -17.713-7.33z" fill="#6eabc9" data-original="#00ffb0"/></g><path d="m417.5 323a94.5 94.5 0 1 1 -94.241 101.5h-104.588a7 7 0 1 1 0-13.994h104.586a94.518 94.518 0 0 1 94.243-87.506zm47.95 159.164c.035-.314.064-.643.078-.971.093-1.172.143-2.429.143-3.758a48.171 48.171 0 0 0 -96.342 0c0 1.329.05 2.586.136 3.758.029.328.057.657.086.971a80.5 80.5 0 0 0 95.9 0zm-30.29-109.543a24.974 24.974 0 1 0 7.322 17.674 24.865 24.865 0 0 0 -7.322-17.674zm-17.66-21.31a38.976 38.976 0 0 1 27.561 66.537q-1.34 1.339-2.8 2.544a62.259 62.259 0 0 1 36.883 48.892 80.5 80.5 0 1 0 -123.281 0 62.272 62.272 0 0 1 36.877-48.892q-1.458-1.2-2.8-2.544a38.973 38.973 0 0 1 27.56-66.54zm-275.054 130.85c.036-.314.065-.643.093-.971.093-1.172.129-2.429.129-3.758a48.168 48.168 0 1 0 -96.335 0c0 1.329.043 2.586.136 3.758.021.328.05.657.079.971a80.5 80.5 0 0 0 95.9 0zm-30.289-109.543a24.974 24.974 0 1 0 7.322 17.674 24.865 24.865 0 0 0 -7.322-17.674zm-17.657-21.31a38.976 38.976 0 0 0 -27.561 66.537c.893.893 1.836 1.743 2.808 2.544a62.257 62.257 0 0 0 -36.887 48.892 80.5 80.5 0 1 1 123.281 0 62.259 62.259 0 0 0 -36.883-48.892c.971-.8 1.914-1.651 2.8-2.544a38.973 38.973 0 0 0 -27.558-66.537zm161.5-351.308a94.5 94.5 0 1 0 63.544 164.45l75.975 131.583a6.981 6.981 0 1 0 12.08-7l-78.046-135.19a94.506 94.506 0 0 0 -73.553-153.843zm47.947 159.16a80.5 80.5 0 0 1 -95.9 0c-.028-.314-.057-.636-.078-.971-.093-1.172-.143-2.429-.143-3.758a48.171 48.171 0 0 1 96.342 0c0 1.336-.036 2.586-.129 3.758-.029.335-.057.657-.093.971zm-30.29-109.543a24.991 24.991 0 1 1 -17.657-7.308 24.921 24.921 0 0 1 17.659 7.308zm-17.657-21.31a38.981 38.981 0 0 0 -27.561 66.544c.893.886 1.836 1.736 2.8 2.536a62.279 62.279 0 0 0 -36.876 48.893 80.5 80.5 0 1 1 123.281 0 62.262 62.262 0 0 0 -36.884-48.893c.972-.8 1.907-1.65 2.8-2.536a38.984 38.984 0 0 0 -27.56-66.544zm-165.789 294.793 50.728-97.371a5.685 5.685 0 0 1 .371-.628l22.068-38.227a6.986 6.986 0 0 1 12.1 6.994l-22.087 38.232-47.7 91.562a94.539 94.539 0 1 1 -15.48-.564z" fill="#143565" data-original="#143565" class=""/></g></g></svg>
