<?xml version="1.0" encoding="UTF-8" standalone="no"?>
<!DOCTYPE svg PUBLIC "-//W3C//DTD SVG 1.1//EN" "http://www.w3.org/Graphics/SVG/1.1/DTD/svg11.dtd">
<!-- Created with Vectornator (http://vectornator.io/) -->
<svg stroke-miterlimit="10" style="fill-rule:nonzero;clip-rule:evenodd;stroke-linecap:round;stroke-linejoin:round;" version="1.1" viewBox="0 0 48 48" xml:space="preserve" xmlns="http://www.w3.org/2000/svg" xmlns:xlink="http://www.w3.org/1999/xlink">
<defs/>
<clipPath id="ArtboardFrame">
<rect height="48" width="48" x="0" y="0"/>
</clipPath>
<g clip-path="url(#ArtboardFrame)" id="Untitled">
<g opacity="1">
<path d="M34 18L24 24L14 18L24 12L34 18Z" fill="#21af90" fill-rule="nonzero" opacity="1" stroke="none"/>
<path d="M24 24L24 36L14 30L14 18L24 24Z" fill="#141414" fill-opacity="0" fill-rule="nonzero" opacity="1" stroke="none"/>
<path d="M34 18L34 30L24 36L24 24L34 18Z" fill="#e4e4e4" fill-opacity="0" fill-rule="nonzero" opacity="1" stroke="none"/>
<g opacity="1">
<path d="M35.73 42.6C26.7405 48.2287 15.0146 46.6421 7.84413 38.8269C0.67362 31.0117 0.100011 19.1929 6.48 10.72C6.98 11.22 7.38 11.79 8.12 11.49C8.86 11.19 8.74 10.37 8.74 7.74C8.74 7.18772 8.29228 6.74 7.74 6.74C5.1 6.74 4.33 6.53 3.98 7.35C3.63 8.17 4.21 8.45 5.06 9.35C-2.03901 18.5533-1.52288 31.5208 6.28513 40.1308C14.0931 48.7408 26.9486 50.5183 36.8 44.35C37.283 44.0544 37.4351 43.4233 37.1397 42.9402C36.8443 42.4571 36.2132 42.3048 35.73 42.6Z" fill="#326ce5" fill-rule="nonzero" opacity="1" stroke="none"/>
<path d="M41 7C33.0357-0.883248 20.6922-2.246 11.2 3.71C10.7335 4.00556 10.5949 4.62325 10.8903 5.08981C11.1857 5.55638 11.8033 5.69524 12.27 5.4C21.2595-0.228699 32.9854 1.35786 40.1559 9.17311C47.3264 16.9883 47.9 28.8071 41.52 37.28C41.03 36.78 40.61 36.2 39.88 36.51C39.15 36.82 39.26 37.63 39.26 40.26C39.2611 40.5272 39.3691 40.7829 39.56 40.97C39.95 41.37 40.19 41.26 43.09 41.26C43.4919 41.2583 43.8537 41.0162 44.0086 40.6454C44.1635 40.2745 44.0813 39.847 43.8 39.56L42.94 38.7C50.3769 29.1551 49.5453 15.5668 41 7Z" fill="#326ce5" fill-rule="nonzero" opacity="1" stroke="none"/>
<path d="M35 17.74C34.82 17.2 34.92 17.37 30.9 14.96C30.5934 14.7184 30.1742 14.6773 29.8264 14.8548C29.4787 15.0323 29.2661 15.3959 29.2819 15.7859C29.2977 16.176 29.5391 16.5212 29.9 16.67L32.06 18L24 22.83L15.94 18L24 13.17L26.41 14.61C26.875 14.8902 27.4787 14.7482 27.77 14.29C27.9101 14.0635 27.9541 13.7904 27.8922 13.5313C27.8302 13.2723 27.6675 13.0486 27.44 12.91C24.44 11.09 24.15 10.74 23.44 11.15C13.26 17.28 13 17.2 13 18C13 30.79 12.8 30.46 13.49 30.86L16.05 32.39C16.5114 32.5802 17.0424 32.4011 17.2943 31.9703C17.5463 31.5395 17.442 30.9889 17.05 30.68L15 29.43L15 19.77L23 24.57L23 34.23L20.51 32.74C20.0486 32.5498 19.5176 32.7289 19.2657 33.1597C19.0137 33.5905 19.118 34.1411 19.51 34.45C21.75 35.8 23.51 36.87 23.51 36.87L23.66 36.93C23.8768 37.0246 24.1232 37.0246 24.34 36.93L24.49 36.87C35.2 30.45 35 30.8 35 30C35 17.13 35 17.92 35 17.74ZM33 29.43L25 34.23L25 24.57L33 19.77L33 29.43Z" fill="#326ce5" fill-rule="nonzero" opacity="1" stroke="none"/>
</g>
</g>
</g>
</svg>
